<mxfile host="app.diagrams.net" agent="Mozilla/5.0 (Windows NT 10.0; Win64; x64) AppleWebKit/537.36 (KHTML, like Gecko) Chrome/128.0.0.0 Safari/537.36" version="24.7.14">
  <diagram name="1 oldal" id="cNl_h8cXqmG5gKRjKZpy">
    <mxGraphModel dx="1434" dy="780" grid="1" gridSize="10" guides="1" tooltips="1" connect="1" arrows="1" fold="1" page="1" pageScale="1" pageWidth="827" pageHeight="1169" math="0" shadow="0">
      <root>
        <mxCell id="0" />
        <mxCell id="1" parent="0" />
        <mxCell id="uvmYT-Y_wEpzYUJAbbyR-1" value="orarend" style="ellipse;whiteSpace=wrap;html=1;fillStyle=auto;dashed=1;" vertex="1" parent="1">
          <mxGeometry x="354" y="10" width="120" height="80" as="geometry" />
        </mxCell>
        <mxCell id="uvmYT-Y_wEpzYUJAbbyR-2" value="helyszin" style="ellipse;whiteSpace=wrap;html=1;" vertex="1" parent="1">
          <mxGeometry x="234" y="280" width="120" height="80" as="geometry" />
        </mxCell>
        <mxCell id="uvmYT-Y_wEpzYUJAbbyR-3" value="targy" style="ellipse;whiteSpace=wrap;html=1;" vertex="1" parent="1">
          <mxGeometry x="114" y="160" width="120" height="80" as="geometry" />
        </mxCell>
        <mxCell id="uvmYT-Y_wEpzYUJAbbyR-4" value="oktato" style="ellipse;whiteSpace=wrap;html=1;" vertex="1" parent="1">
          <mxGeometry x="474" y="280" width="120" height="80" as="geometry" />
        </mxCell>
        <mxCell id="uvmYT-Y_wEpzYUJAbbyR-5" value="szak" style="ellipse;whiteSpace=wrap;html=1;" vertex="1" parent="1">
          <mxGeometry x="594" y="160" width="120" height="80" as="geometry" />
        </mxCell>
        <mxCell id="uvmYT-Y_wEpzYUJAbbyR-6" value="idopont" style="ellipse;whiteSpace=wrap;html=1;" vertex="1" parent="1">
          <mxGeometry x="354" y="400" width="120" height="80" as="geometry" />
        </mxCell>
        <mxCell id="uvmYT-Y_wEpzYUJAbbyR-7" value="nap" style="ellipse;whiteSpace=wrap;html=1;" vertex="1" parent="1">
          <mxGeometry x="234" y="585" width="120" height="80" as="geometry" />
        </mxCell>
        <mxCell id="uvmYT-Y_wEpzYUJAbbyR-8" value="tol" style="ellipse;whiteSpace=wrap;html=1;" vertex="1" parent="1">
          <mxGeometry x="354" y="665" width="120" height="80" as="geometry" />
        </mxCell>
        <mxCell id="uvmYT-Y_wEpzYUJAbbyR-9" value="ig" style="ellipse;whiteSpace=wrap;html=1;" vertex="1" parent="1">
          <mxGeometry x="490" y="585" width="120" height="80" as="geometry" />
        </mxCell>
        <mxCell id="uvmYT-Y_wEpzYUJAbbyR-11" value="ora" style="ellipse;whiteSpace=wrap;html=1;" vertex="1" parent="1">
          <mxGeometry x="354" y="130" width="120" height="80" as="geometry" />
        </mxCell>
        <mxCell id="uvmYT-Y_wEpzYUJAbbyR-12" value="" style="endArrow=none;html=1;rounded=0;entryX=0.675;entryY=0.063;entryDx=0;entryDy=0;entryPerimeter=0;exitX=0.3;exitY=1;exitDx=0;exitDy=0;exitPerimeter=0;" edge="1" parent="1" source="uvmYT-Y_wEpzYUJAbbyR-6" target="uvmYT-Y_wEpzYUJAbbyR-7">
          <mxGeometry width="50" height="50" relative="1" as="geometry">
            <mxPoint x="390" y="430" as="sourcePoint" />
            <mxPoint x="440" y="380" as="targetPoint" />
          </mxGeometry>
        </mxCell>
        <mxCell id="uvmYT-Y_wEpzYUJAbbyR-13" value="" style="endArrow=none;html=1;rounded=0;" edge="1" parent="1" source="uvmYT-Y_wEpzYUJAbbyR-6" target="uvmYT-Y_wEpzYUJAbbyR-8">
          <mxGeometry width="50" height="50" relative="1" as="geometry">
            <mxPoint x="390" y="430" as="sourcePoint" />
            <mxPoint x="440" y="380" as="targetPoint" />
          </mxGeometry>
        </mxCell>
        <mxCell id="uvmYT-Y_wEpzYUJAbbyR-14" value="" style="endArrow=none;html=1;rounded=0;exitX=0.783;exitY=0.888;exitDx=0;exitDy=0;exitPerimeter=0;" edge="1" parent="1" source="uvmYT-Y_wEpzYUJAbbyR-6" target="uvmYT-Y_wEpzYUJAbbyR-9">
          <mxGeometry width="50" height="50" relative="1" as="geometry">
            <mxPoint x="390" y="430" as="sourcePoint" />
            <mxPoint x="440" y="380" as="targetPoint" />
          </mxGeometry>
        </mxCell>
        <mxCell id="uvmYT-Y_wEpzYUJAbbyR-15" value="" style="endArrow=none;html=1;rounded=0;" edge="1" parent="1" source="uvmYT-Y_wEpzYUJAbbyR-6" target="uvmYT-Y_wEpzYUJAbbyR-11">
          <mxGeometry width="50" height="50" relative="1" as="geometry">
            <mxPoint x="390" y="430" as="sourcePoint" />
            <mxPoint x="440" y="380" as="targetPoint" />
          </mxGeometry>
        </mxCell>
        <mxCell id="uvmYT-Y_wEpzYUJAbbyR-16" value="" style="endArrow=none;html=1;rounded=0;" edge="1" parent="1" source="uvmYT-Y_wEpzYUJAbbyR-4" target="uvmYT-Y_wEpzYUJAbbyR-11">
          <mxGeometry width="50" height="50" relative="1" as="geometry">
            <mxPoint x="390" y="430" as="sourcePoint" />
            <mxPoint x="440" y="380" as="targetPoint" />
          </mxGeometry>
        </mxCell>
        <mxCell id="uvmYT-Y_wEpzYUJAbbyR-17" value="" style="endArrow=none;html=1;rounded=0;" edge="1" parent="1" source="uvmYT-Y_wEpzYUJAbbyR-2" target="uvmYT-Y_wEpzYUJAbbyR-11">
          <mxGeometry width="50" height="50" relative="1" as="geometry">
            <mxPoint x="390" y="430" as="sourcePoint" />
            <mxPoint x="440" y="380" as="targetPoint" />
          </mxGeometry>
        </mxCell>
        <mxCell id="uvmYT-Y_wEpzYUJAbbyR-18" value="" style="endArrow=none;html=1;rounded=0;" edge="1" parent="1" source="uvmYT-Y_wEpzYUJAbbyR-3" target="uvmYT-Y_wEpzYUJAbbyR-11">
          <mxGeometry width="50" height="50" relative="1" as="geometry">
            <mxPoint x="390" y="430" as="sourcePoint" />
            <mxPoint x="440" y="380" as="targetPoint" />
          </mxGeometry>
        </mxCell>
        <mxCell id="uvmYT-Y_wEpzYUJAbbyR-19" value="" style="endArrow=none;html=1;rounded=0;" edge="1" parent="1" source="uvmYT-Y_wEpzYUJAbbyR-5" target="uvmYT-Y_wEpzYUJAbbyR-11">
          <mxGeometry width="50" height="50" relative="1" as="geometry">
            <mxPoint x="390" y="430" as="sourcePoint" />
            <mxPoint x="440" y="380" as="targetPoint" />
          </mxGeometry>
        </mxCell>
        <mxCell id="uvmYT-Y_wEpzYUJAbbyR-20" value="" style="endArrow=none;html=1;rounded=0;" edge="1" parent="1" source="uvmYT-Y_wEpzYUJAbbyR-11" target="uvmYT-Y_wEpzYUJAbbyR-1">
          <mxGeometry width="50" height="50" relative="1" as="geometry">
            <mxPoint x="410" y="170" as="sourcePoint" />
            <mxPoint x="440" y="380" as="targetPoint" />
          </mxGeometry>
        </mxCell>
      </root>
    </mxGraphModel>
  </diagram>
</mxfile>
